<svg xmlns="http://www.w3.org/2000/svg" viewBox="0 0 64 64" width="64" height="64">
  <defs>
    <linearGradient id="g" x1="0" y1="0" x2="0" y2="1">
      <stop offset="0" stop-color="#0a4d68"/>
      <stop offset="1" stop-color="#06384d"/>
    </linearGradient>
  </defs>
  <rect width="64" height="64" rx="14" fill="url(#g)"/>
  <!-- prawn / shrimp mark -->
  <path d="M18 40c-2-9 4-18 14-19 7-1 13 3 15 8" fill="none" stroke="#f4a23b" stroke-width="4" stroke-linecap="round"/>
  <path d="M47 29c3 1 5 4 4 7-2 5-8 8-14 8-9 0-16-5-19-12" fill="none" stroke="#ffce6b" stroke-width="4" stroke-linecap="round"/>
  <circle cx="22" cy="24" r="2.6" fill="#ffce6b"/>
  <path d="M45 22c3-3 7-4 11-3" fill="none" stroke="#f4a23b" stroke-width="3" stroke-linecap="round"/>
  <path d="M46 26c3-1 7-1 10 1" fill="none" stroke="#f4a23b" stroke-width="3" stroke-linecap="round"/>
</svg>
